<?xml version="1.0"?>
<svg xmlns="http://www.w3.org/2000/svg" version="1.1" width="600px" height="600px" viewBox="0 0 200 200" style="overflow:hidden!important;">
  <defs id="SvgjsDefs1007">
    <radialGradient id="SvgjsRadialGradient2773" cx="100" cy="113" r="40" gradientUnits="userSpaceOnUse" class="svga-on-canvas-facehighlight-gradient-single-0">
      <stop id="SvgjsStop2774" stop-opacity="0.5" stop-color="#ffffff" offset="0"/>
      <stop id="SvgjsStop2775" stop-opacity="0" stop-color="#f6e4e2" offset="0.9"/>
    </radialGradient>
    <radialGradient id="SvgjsRadialGradient2777" cx="100" cy="57" r="36" gradientUnits="userSpaceOnUse" class="svga-on-canvas-facehighlight-gradient-single-1">
      <stop id="SvgjsStop2778" stop-opacity="0.5" stop-color="#ffffff" offset="0"/>
      <stop id="SvgjsStop2779" stop-opacity="0" stop-color="#f6e4e2" offset="0.9"/>
    </radialGradient>
    <radialGradient id="SvgjsRadialGradient3074" cx="126.672" cy="88.669" r="14.058" gradientTransform="matrix(-1.0357 0 0 1.0357 204.6606 -3.2718)" gradientUnits="userSpaceOnUse" class="svga-on-canvas-eyesback-gradient-left-0">
      <stop id="SvgjsStop3075" stop-opacity="1" stop-color="#ffffff" offset="0"/>
      <stop id="SvgjsStop3076" stop-opacity="1" stop-color="#fdfefe" offset="0.544"/>
      <stop id="SvgjsStop3077" stop-opacity="1" stop-color="#f6f8f9" offset="0.74"/>
      <stop id="SvgjsStop3078" stop-opacity="1" stop-color="#eaeff2" offset="0.879"/>
      <stop id="SvgjsStop3079" stop-opacity="1" stop-color="#d9e3e8" offset="0.992"/>
      <stop id="SvgjsStop3080" stop-opacity="1" stop-color="#d8e2e7" offset="1"/>
    </radialGradient>
    <radialGradient id="SvgjsRadialGradient3082" cx="126.672" cy="88.669" r="14.058" gradientTransform="matrix(1.0357 0 0 1.0357 -4.6606 -3.2718)" gradientUnits="userSpaceOnUse" class="svga-on-canvas-eyesback-gradient-right-0">
      <stop id="SvgjsStop3083" stop-opacity="1" stop-color="#ffffff" offset="0"/>
      <stop id="SvgjsStop3084" stop-opacity="1" stop-color="#fdfefe" offset="0.544"/>
      <stop id="SvgjsStop3085" stop-opacity="1" stop-color="#f6f8f9" offset="0.74"/>
      <stop id="SvgjsStop3086" stop-opacity="1" stop-color="#eaeff2" offset="0.879"/>
      <stop id="SvgjsStop3087" stop-opacity="1" stop-color="#d9e3e8" offset="0.992"/>
      <stop id="SvgjsStop3088" stop-opacity="1" stop-color="#d8e2e7" offset="1"/>
    </radialGradient>
    <radialGradient id="SvgjsRadialGradient3090" cx="126.672" cy="88.669" r="14.058" gradientTransform="matrix(-1.0357 0 0 1.0357 204.6606 -3.2718)" gradientUnits="userSpaceOnUse" class="svga-on-canvas-eyesfront-gradient-left-0">
      <stop id="SvgjsStop3091" stop-opacity="1" stop-color="#ffffff" offset="0"/>
      <stop id="SvgjsStop3092" stop-opacity="1" stop-color="#fdfefe" offset="0.544"/>
      <stop id="SvgjsStop3093" stop-opacity="1" stop-color="#f6f8f9" offset="0.74"/>
      <stop id="SvgjsStop3094" stop-opacity="1" stop-color="#eaeff2" offset="0.879"/>
      <stop id="SvgjsStop3095" stop-opacity="1" stop-color="#d9e3e8" offset="0.992"/>
      <stop id="SvgjsStop3096" stop-opacity="1" stop-color="#d8e2e7" offset="1"/>
    </radialGradient>
    <radialGradient id="SvgjsRadialGradient3100" cx="123.623" cy="87.41" fx="136.422" fy="87.446" r="18.203" gradientTransform="matrix(0.9998 0.0208 0.0166 -0.7998 -48.6744 154.7508)" gradientUnits="userSpaceOnUse" class="svga-on-canvas-eyesfront-gradient-left-3">
      <stop id="SvgjsStop3101" stop-opacity="1" stop-color="#e7c1bd" offset="0"/>
      <stop id="SvgjsStop3102" stop-opacity="0.3" stop-color="#e7c1bd" offset="0.7"/>
      <stop id="SvgjsStop3103" stop-opacity="0" stop-color="#f6e4e2" offset="1"/>
    </radialGradient>
    <radialGradient id="SvgjsRadialGradient3105" cx="72.134" cy="102.21" r="22.89" gradientTransform="matrix(0.9878 -0.0515 0.0518 0.9833 -2.5169 7.7255)" gradientUnits="userSpaceOnUse" class="svga-on-canvas-eyesfront-gradient-left-4">
      <stop id="SvgjsStop3106" stop-opacity="0" stop-color="#000000" offset="0.95"/>
      <stop id="SvgjsStop3107" stop-opacity="0.3" stop-color="#000000" offset="1"/>
    </radialGradient>
    <radialGradient id="SvgjsRadialGradient3111" cx="126.672" cy="88.669" r="14.058" gradientTransform="matrix(1.0357 0 0 1.0357 -4.6606 -3.2718)" gradientUnits="userSpaceOnUse" class="svga-on-canvas-eyesfront-gradient-right-0">
      <stop id="SvgjsStop3112" stop-opacity="1" stop-color="#ffffff" offset="0"/>
      <stop id="SvgjsStop3113" stop-opacity="1" stop-color="#fdfefe" offset="0.544"/>
      <stop id="SvgjsStop3114" stop-opacity="1" stop-color="#f6f8f9" offset="0.74"/>
      <stop id="SvgjsStop3115" stop-opacity="1" stop-color="#eaeff2" offset="0.879"/>
      <stop id="SvgjsStop3116" stop-opacity="1" stop-color="#d9e3e8" offset="0.992"/>
      <stop id="SvgjsStop3117" stop-opacity="1" stop-color="#d8e2e7" offset="1"/>
    </radialGradient>
    <radialGradient id="SvgjsRadialGradient3121" cx="123.623" cy="87.41" fx="136.422" fy="87.446" r="18.203" gradientTransform="matrix(-0.9998 0.0208 -0.0166 -0.7998 248.6744 154.7508)" gradientUnits="userSpaceOnUse" class="svga-on-canvas-eyesfront-gradient-right-3">
      <stop id="SvgjsStop3122" stop-opacity="1" stop-color="#e7c1bd" offset="0"/>
      <stop id="SvgjsStop3123" stop-opacity="0.3" stop-color="#e7c1bd" offset="0.7"/>
      <stop id="SvgjsStop3124" stop-opacity="0" stop-color="#f6e4e2" offset="1"/>
    </radialGradient>
    <radialGradient id="SvgjsRadialGradient3126" cx="72.134" cy="102.21" r="22.89" gradientTransform="matrix(-0.9878 -0.0515 -0.0518 0.9833 202.5169 7.7255)" gradientUnits="userSpaceOnUse" class="svga-on-canvas-eyesfront-gradient-right-4">
      <stop id="SvgjsStop3127" stop-opacity="0" stop-color="#000000" offset="0.95"/>
      <stop id="SvgjsStop3128" stop-opacity="0.3" stop-color="#000000" offset="1"/>
    </radialGradient>
    <radialGradient id="SvgjsRadialGradient3133" cx="-558.588" cy="-490.918" r="84.646" gradientTransform="matrix(0.096 -0.0248 0.0245 0.0961 140.5478 120.3577)" gradientUnits="userSpaceOnUse" class="svga-on-canvas-eyesiris-gradient-left-1">
      <stop id="SvgjsStop3134" stop-opacity="0.8" stop-color="#ffffff" offset="0"/>
      <stop id="SvgjsStop3135" stop-opacity="0" stop-color="#ffffff" offset="1"/>
    </radialGradient>
    <radialGradient id="SvgjsRadialGradient3137" cx="-565.337" cy="-492.691" r="84.644" gradientTransform="matrix(0.0991 8.856325e-004 -0.0011 0.0991 130.3774 136.3533)" gradientUnits="userSpaceOnUse" class="svga-on-canvas-eyesiris-gradient-left-2">
      <stop id="SvgjsStop3138" stop-opacity="0.8" stop-color="#ffffff" offset="0"/>
      <stop id="SvgjsStop3139" stop-opacity="0" stop-color="#ffffff" offset="1"/>
    </radialGradient>
    <linearGradient id="SvgjsLinearGradient3143" x1="122.283" y1="93.047" x2="123.61" y2="91.466" gradientTransform="matrix(1 0 0 1 -52 0)" gradientUnits="userSpaceOnUse" class="svga-on-canvas-eyesiris-gradient-left-5">
      <stop id="SvgjsStop3144" stop-opacity="1" stop-color="#ffffff" offset="0"/>
      <stop id="SvgjsStop3145" stop-opacity="0" stop-color="#ffffff" offset="1"/>
    </linearGradient>
    <linearGradient id="SvgjsLinearGradient3147" x1="127" y1="85" x2="125" y2="87" gradientTransform="matrix(1 0 0 1 -50 0)" gradientUnits="userSpaceOnUse" class="svga-on-canvas-eyesiris-gradient-left-6">
      <stop id="SvgjsStop3148" stop-opacity="1" stop-color="#ffffff" offset="0"/>
      <stop id="SvgjsStop3149" stop-opacity="0" stop-color="#ffffff" offset="1"/>
    </linearGradient>
    <linearGradient id="SvgjsLinearGradient3151" x1="130" y1="81" x2="126" y2="85" gradientTransform="matrix(1 0 0 1 -50 0)" gradientUnits="userSpaceOnUse" class="svga-on-canvas-eyesiris-gradient-left-7">
      <stop id="SvgjsStop3152" stop-opacity="1" stop-color="#ffffff" offset="0"/>
      <stop id="SvgjsStop3153" stop-opacity="0" stop-color="#ffffff" offset="1"/>
    </linearGradient>
    <radialGradient id="SvgjsRadialGradient3156" cx="-578.76" cy="-490.73" r="84.646" gradientTransform="matrix(0.096 -0.0248 0.0245 0.0961 192.4794 119.8404)" gradientUnits="userSpaceOnUse" class="svga-on-canvas-eyesiris-gradient-right-1">
      <stop id="SvgjsStop3157" stop-opacity="0.8" stop-color="#ffffff" offset="0"/>
      <stop id="SvgjsStop3158" stop-opacity="0" stop-color="#ffffff" offset="1"/>
    </radialGradient>
    <radialGradient id="SvgjsRadialGradient3160" cx="-584.778" cy="-487.329" r="84.644" gradientTransform="matrix(0.0991 8.856325e-004 -0.0011 0.0991 182.3104 135.839)" gradientUnits="userSpaceOnUse" class="svga-on-canvas-eyesiris-gradient-right-2">
      <stop id="SvgjsStop3161" stop-opacity="0.8" stop-color="#ffffff" offset="0"/>
      <stop id="SvgjsStop3162" stop-opacity="0" stop-color="#ffffff" offset="1"/>
    </radialGradient>
    <linearGradient id="SvgjsLinearGradient3166" x1="120.284" y1="93.047" x2="121.611" y2="91.467" gradientUnits="userSpaceOnUse" class="svga-on-canvas-eyesiris-gradient-right-5">
      <stop id="SvgjsStop3167" stop-opacity="1" stop-color="#ffffff" offset="0"/>
      <stop id="SvgjsStop3168" stop-opacity="0" stop-color="#ffffff" offset="1"/>
    </linearGradient>
    <linearGradient id="SvgjsLinearGradient3170" x1="127" y1="85" x2="125" y2="87" gradientUnits="userSpaceOnUse" class="svga-on-canvas-eyesiris-gradient-right-6">
      <stop id="SvgjsStop3171" stop-opacity="1" stop-color="#ffffff" offset="0"/>
      <stop id="SvgjsStop3172" stop-opacity="0" stop-color="#ffffff" offset="1"/>
    </linearGradient>
    <linearGradient id="SvgjsLinearGradient3174" x1="130" y1="81" x2="126" y2="85" gradientUnits="userSpaceOnUse" class="svga-on-canvas-eyesiris-gradient-right-7">
      <stop id="SvgjsStop3175" stop-opacity="1" stop-color="#ffffff" offset="0"/>
      <stop id="SvgjsStop3176" stop-opacity="0" stop-color="#ffffff" offset="1"/>
    </linearGradient>
    <linearGradient id="SvgjsLinearGradient3255" x1="99.98" y1="171.27" x2="99.98" y2="136.351" gradientUnits="userSpaceOnUse" class="svga-on-canvas-chinshadow-gradient-single-0">
      <stop id="SvgjsStop3256" stop-opacity="0.8" stop-color="#e7c1bd" offset="0"/>
      <stop id="SvgjsStop3257" stop-opacity="1" stop-color="#c8837c" offset="0.7"/>
    </linearGradient>
    <linearGradient id="SvgjsLinearGradient3342" x1="100" y1="141" x2="100" y2="138" gradientUnits="userSpaceOnUse" class="svga-on-canvas-mouth-gradient-single-0">
      <stop id="SvgjsStop3343" stop-opacity="1" stop-color="#eed2cf" offset="0.1"/>
      <stop id="SvgjsStop3344" stop-opacity="1" stop-color="#e7c1bd" offset="1"/>
    </linearGradient>
  </defs>
  <g id="svga-group-wrapper">
    <g id="svga-group-backs-single">
      <path id="SvgjsPath3306" d="M225 225H-25V-25h250V225z" fill="#000000" stroke-width="none" opacity="1" stroke="none"/>
    </g>
    <g id="svga-group-humanwrap-move" transform="matrix(1,0,0,1,0,0)">
      <g id="svga-group-humanwrap" transform="matrix(1,0,0,1,0,0)">
        <g id="svga-group-hair-back-move" transform="matrix(1,0,0,1,0,0)">
          <g id="svga-group-hair-back" transform="matrix(1,0,0,1,0,0)">
            <path id="SvgjsPath3315" d="M160 24.999H40c0 0-1 193.284-1 199h123L160 24.999z" fill="#200520" stroke-width="none" opacity="1" stroke="none"/>
          </g>
        </g>
        <g id="svga-group-humanbody-single">
          <path id="SvgjsPath2780" d="M190.858 199.866c-6.008-10.158-13.474-11.973-19.628-13.936 -6.323-2.016-19.346-3.178-26.449-4.6 -6.86-1.373-23.153-5.789-23.339-13.488 -0.192-8.066 4.291-40.09 4.291-40.09H74.005c0 0 4.487 32.023 4.294 40.09 -0.184 7.699-16.48 12.115-23.341 13.488 -7.104 1.422-20.125 2.584-26.448 4.6 -6.156 1.963-13.624 3.777-19.632 13.936 -3.644 6.16-6.008 16.133-6.008 27.133h194C196.869 215.999 194.509 206.026 190.858 199.866z" fill="#f6e4e2" stroke-width="none" opacity="1" stroke="none"/>
          <path id="SvgjsPath2781" d="M121.442 167.843c2.495 10.929 18.165 13.698 26.293 15.325 21.909 4.379 33.772 5.134 42.297 19.539 2.903 4.916 5.459 15.864 5.962 24.153 1.835 0.291 0.531-17.432-5.136-26.994 -9.742-16.472-29.089-15.135-46.077-18.535C137.921 179.958 121.628 175.542 121.442 167.843L121.442 167.843zM78.558 167.843c-0.186 7.699-16.479 12.115-23.339 13.488 -16.988 3.4-36.335 2.063-46.077 18.535 -5.667 9.563-6.971 27.285-5.136 26.994 0.503-8.289 3.059-19.237 5.962-24.153 8.524-14.405 20.388-15.16 42.297-19.539C60.393 181.541 76.063 178.771 78.558 167.843L78.558 167.843z" fill="#ffffff" stroke-width="none" opacity="1" stroke="none"/>
          <path id="SvgjsPath2782" d="M51.206 189.513c0 0 28.641 0.299 33.473 1.885 2.314 0.758 8.372 5.633 8.372 5.633s-6.556-3.17-8.658-3.758C79.51 191.909 51.206 189.513 51.206 189.513zM99.795 199.999c2.053-0.041 7.887-3.799 7.887-3.799s-5.574 2.059-7.342 2.16c-1.491 0.086-6.366-1.238-6.366-1.238S98.112 200.032 99.795 199.999zM117.008 192.757c6.75-1.818 29.786-3.23 29.786-3.23s-23.791-0.516-30.51 1.725c-2.252 0.752-7.562 5.16-7.562 5.16S114.786 193.354 117.008 192.757z" fill="#e7c1bd" stroke-width="none" opacity="1" stroke="none"/>
          <path id="SvgjsPath2783" d="M190.858 199.866c-9.741-16.471-29.122-15.142-46.077-18.535 -6.86-1.373-23.153-5.789-23.339-13.488 -0.192-8.066 4.291-40.09 4.291-40.09H74.005c0 0 4.487 32.023 4.294 40.09 -0.184 7.699-16.48 12.115-23.341 13.488 -7.104 1.422-20.125 2.584-26.448 4.6 -6.156 1.963-13.624 3.777-19.632 13.936 -3.644 6.16-6.008 16.133-6.008 27.133h194C196.869 215.999 194.509 206.026 190.858 199.866z" fill="none" stroke="#c8837c" stroke-width="1.5" opacity="1"/>
        </g>
        <g id="svga-group-chinshadow-single">
          <path id="SvgjsPath3254" d="M100.045 171.737c5.593-0.009 13.488-3.608 20.908-8.44 0.448-6.688 1.717-17.243 2.734-25.146 -13.955-1.813-33.739-1.771-47.623 0.105 1.008 7.831 2.258 18.226 2.713 24.89C86.31 168.063 94.37 171.746 100.045 171.737z" fill="url(#SvgjsLinearGradient3255)" opacity="1"/>
        </g>
        <g id="svga-group-clothes-single">
          <path id="SvgjsPath3324" d="M3.229 223.031c-0.622-0.007-0.456-0.006-0.92-0.006 0.025-17.784 6.689-31.059 17.837-35.518 1.466 0.314 3.037 0.725 4.514 1.033C11.551 194.886 4.531 208.814 3.229 223.031zM181.643 188.404c-1.855 0.251-3.683 0.491-5.504 0.729 13.353 5.75 17.424 20.534 19.434 33.854 0.344-0.001 0.655-0.002 0.931-0.002C195.421 206.217 195.152 195.351 181.643 188.404z" fill="#2d373d" stroke-width="none" opacity="1" stroke="none"/>
          <path id="SvgjsPath3325" d="M181.509 192.193c0.734-0.111 2.033-0.324 2.761-0.438 -1.678-1.271-2.67-1.958-3.67-2.549 -5.851 1.009-59.284 7.112-88.51 7.112 -38.337 0-66.622-6.76-71.951-8.293 -1.09 0.62-2.15 1.301-3.15 2.061 1 0.257 2.201 0.598 3.218 0.841 -10.338 7.09-15.825 19.518-16.978 32.104 30.39 0.341 61.447 0.514 92.321 0.514 0.005 0 0.01 0 0.015 0 40.676 0 71.674-0.298 88.328-0.458 5.388-0.052 9.327-0.09 11.679-0.1C193.85 211.572 190.635 199.159 181.509 192.193z" fill="#1d282e" stroke-width="none" opacity="1" stroke="none"/>
          <path id="SvgjsPath3326" d="M23.439 189.002c-1.117 0.595-2.181 1.252-3.204 1.955 49.803 12.038 110.22 9.005 161.174 1.236 -1.131-0.854-2.354-1.625-3.673-2.303C129.006 198.106 71.062 201.817 23.439 189.002z" fill="#101a1f" stroke-width="none" opacity="1" stroke="none"/>
          <path id="SvgjsPath3327" d="M181.629 188.306c-89.42 12.081-124.385 7.031-161.52-0.891 -13.279 5.312-17.9 21.352-17.9 35.71 0.17 0 0.33 0 0.49 0 105.661 1.193 182.323-0.04 193.91-0.04C195.509 206.252 195.316 195.321 181.629 188.306zM20.239 188.125c49.132 14.134 109.964 10.021 160.36 1.28 1 0.591 1.992 1.079 3.67 2.35 -52.607 8.26-115.869 11.615-167.18-1.569C18.089 189.426 19.149 188.745 20.239 188.125zM2.769 222.605c1.961-14.393 4.62-24.719 13.97-32.15 50.694 14.553 116.182 11.469 168.26 1.86 8.309 6.651 7.884 13.707 11.01 30.32C140.967 222.022 68.396 221.847 2.769 222.605z" fill="#000000" stroke-width="none" opacity="1" stroke="none"/>
        </g>
        <g id="svga-group-head" transform="matrix(1,0,0,1,0,0)">
          <g id="svga-group-ears-left-move" transform="matrix(1,0,0,1,0,0)" style="">
            <g id="svga-group-ears-left" transform="matrix(1,0,0,1,0,0)">
              <path id="SvgjsPath3328" d="M45.671 83.846c-1.485-2.408-6.327-8.995-10.031-8.071 -3.012 0.755-2.973 4.861-3.206 7.289 -0.34 3.563-0.464 9.771 0.525 12.29 0.951 2.418 3.96 7.092 5.828 8.874 2.299 2.185 5.97 9.15 6.422 9.872 0.711 1.142 2.137 2.776 4.325 2.647 3.071-0.181 5.724-3.018 5.965-4.386C56.8 104.941 49.536 90.11 45.671 83.846z" fill="#f6e4e2" stroke="#c8837c" stroke-width="1.5" opacity="1"/>
              <path id="SvgjsPath3329" d="M44.2 98.511c-0.143-0.55 0.007-1.479 0.154-2.375 0.133-0.817 0.258-1.588 0.182-2.134 -0.289-2.043-1.915-5.926-2.976-8.03 -1.223-2.421-3.199-5.471-5.679-6.257 -1.024-0.326-1.699 0.063-2.089 0.458 -0.288 0.29-0.353 0.63-0.259 0.671 0.095 0.04 0.307-0.242 0.617-0.508 0.254-0.217-0.508-0.039 0 0 -0.205 1.017-0.865 6.162-0.41 9.918 0.358 2.955 1.05 5.162 1.263 5.492 0.031 0.349 0.083 0.689 0.16 1.02 1.002 4.312 7.518 9.95 9.034 11.557 0.28 0.296 0.574 0.473 0.646 0.4 0.072-0.073-0.101-0.365-0.379-0.664 -1.498-1.595-7.971-7.214-8.939-11.375 -1.027-4.414 3.912-10.958 4.699-12.343 0.401 0.65 0.742 1.274 1.004 1.795 0.207 0.408 0.434 0.886 0.67 1.403 -0.463 0.721-5.118 5.992-3.934 10.21 0.438 1.556 3.822 3.561 5.131 4.11 0.72 0.303 0.99 0.754 1.304 1.277 0.364 0.608 0.033 2.179 1.23 2.677 0.244 0.103 0.464 0.144 0.659 0.144 0.338 0 0.594-0.127 0.783-0.278 0.02 0.266 0.019 0.605 0.009 0.921 -0.012 0.407 0.047 0.596 0.148 0.604 0.103 0.008 0.21-0.17 0.223-0.574 0.017-0.5 0.014-1.116-0.077-1.412 -0.269-0.868-1.088-1.851-1.957-2.89C44.563 101.304 44.422 99.364 44.2 98.511zM34.969 94.688c-2.348-6.77 1.283-12.936 1.81-13.865 1.012 0.39 2.562 2.145 3.221 3.163C39.52 84.802 35.067 90.135 34.969 94.688zM45.772 105.475c-1.084-0.451-0.706-1.939-1.056-2.525 -0.318-0.531-0.646-1.078-1.479-1.429 -0.18-0.076-0.379-0.191-0.583-0.325 -2.682-5.939 0.293-8.537 1.039-9.068 0.229 0.726 0.399 1.392 0.476 1.926 0.068 0.49-0.059 1.27-0.181 2.023 -0.153 0.934-0.31 1.901-0.147 2.526 0.244 0.931 0.411 2.904 1.291 3.958 0.781 0.935 1.583 1.899 1.857 2.685C46.871 105.403 46.5 105.778 45.772 105.475z" fill="#c8837c" stroke-width="none" opacity="1"/>
            </g>
          </g>
          <g id="svga-group-ears-right-move" transform="matrix(1,0,0,1,0,0)" style="">
            <g id="svga-group-ears-right" transform="matrix(1,0,0,1,0,0)">
              <path id="SvgjsPath3330" d="M154.066 83.846c1.486-2.408 6.328-8.995 10.031-8.071 3.012 0.755 2.973 4.861 3.207 7.289 0.34 3.563 0.463 9.771-0.525 12.29 -0.951 2.418-3.961 7.092-5.828 8.874 -2.299 2.185-5.971 9.15-6.422 9.872 -0.711 1.142-2.137 2.776-4.326 2.647 -3.07-0.181-5.723-3.018-5.965-4.386C142.938 104.941 150.203 90.11 154.066 83.846z" fill="#f6e4e2" stroke="#c8837c" stroke-width="1.5" opacity="1"/>
              <path id="SvgjsPath3331" d="M154.322 102.327c-0.869 1.039-1.688 2.022-1.957 2.89 -0.092 0.296-0.094 0.912-0.078 1.412 0.014 0.404 0.121 0.582 0.225 0.574 0.102-0.008 0.16-0.196 0.148-0.604 -0.01-0.315-0.012-0.655 0.008-0.921 0.189 0.151 0.445 0.278 0.783 0.278 0.195 0 0.416-0.041 0.66-0.144 1.195-0.498 0.865-2.068 1.229-2.677 0.314-0.523 0.584-0.975 1.305-1.277 1.309-0.549 4.693-2.554 5.131-4.11 1.184-4.218-3.471-9.489-3.934-10.21 0.234-0.517 0.463-0.995 0.668-1.403 0.264-0.521 0.604-1.145 1.006-1.795 0.787 1.384 5.725 7.929 4.699 12.343 -0.969 4.161-7.441 9.781-8.939 11.375 -0.279 0.299-0.453 0.591-0.381 0.664 0.074 0.072 0.367-0.104 0.646-0.4 1.516-1.606 8.031-7.245 9.033-11.557 0.078-0.33 0.131-0.671 0.162-1.02 0.211-0.331 0.904-2.537 1.262-5.492 0.455-3.756-0.205-8.901-0.41-9.918 0.508-0.039-0.254-0.217 0 0 0.311 0.266 0.523 0.548 0.617 0.508 0.094-0.041 0.029-0.381-0.258-0.671 -0.391-0.394-1.066-0.784-2.09-0.458 -2.48 0.786-4.457 3.836-5.68 6.257 -1.061 2.104-2.686 5.987-2.975 8.03 -0.076 0.546 0.049 1.317 0.182 2.134 0.146 0.896 0.297 1.824 0.154 2.375C155.316 99.364 155.176 101.304 154.322 102.327zM159.738 83.987c0.66-1.019 2.209-2.773 3.221-3.163 0.527 0.929 4.158 7.095 1.811 13.865C164.672 90.135 160.219 84.802 159.738 83.987zM152.75 105.246c0.273-0.785 1.076-1.75 1.857-2.685 0.879-1.053 1.047-3.026 1.291-3.958 0.162-0.625 0.006-1.592-0.146-2.526 -0.123-0.754-0.25-1.534-0.182-2.023 0.076-0.535 0.246-1.201 0.475-1.926 0.746 0.531 3.721 3.128 1.039 9.068 -0.203 0.133-0.402 0.249-0.584 0.325 -0.832 0.351-1.16 0.898-1.479 1.429 -0.35 0.586 0.029 2.074-1.055 2.525C153.238 105.778 152.867 105.403 152.75 105.246z" fill="#c8837c" stroke-width="none" opacity="1"/>
            </g>
          </g>
          <g id="svga-group-faceshape-wrap" transform="matrix(1,0,0,1,0,0)">
            <g id="svga-group-faceshape-single">
              <path id="SvgjsPath3251" d="M158.918 76.762l-0.005 0c-0.012 0.053-9.983 40.707-18.186 53.285 -6.452 9.894-28.899 29.205-40.573 29.223 -11.671 0.02-34.17-19.225-40.652-29.1C51.261 117.618 41.15 77 41.138 76.946h-0.001c-1.298-4.911-1.994-10.066-2.002-15.382C39.082 28.09 66.289 0.919 99.907 0.867c33.621-0.052 60.913 27.033 60.963 60.507C160.879 66.69 160.201 71.846 158.918 76.762z" fill="#f6e4e2" stroke-width="none" opacity="1"/>
              <path id="SvgjsPath3252" d="M125.898 6.622c19.104 10.248 32.075 30.355 32.039 53.476 -0.009 5.316-0.704 10.471-2.003 15.382h-0.001c-0.012 0.053-10.123 40.672-18.365 53.224 -5.946 9.061-25.288 28.788-37.566 28.788 -12.279 0-31.619-19.728-37.566-28.788 -8.241-12.552-18.353-53.17-18.364-53.224H44.07c-1.298-4.911-1.994-10.066-2.002-15.382C42.031 36.977 55.003 16.87 74.105 6.622 53.411 16.324 39.096 37.28 39.134 61.564c0.008 5.316 0.704 10.471 2.002 15.382h0.001C41.15 77 51.261 117.618 59.503 130.17c4.416 6.728 16.656 19.762 27.233 25.049 -0.529-0.226-1.062-0.466-1.599-0.717 5.408 2.875 10.664 4.763 14.713 4.768 0.049 0 0.103-0.005 0.152-0.005s0.103 0.005 0.152 0.005c4.048-0.005 9.304-1.893 14.713-4.768 -0.538 0.253-1.071 0.491-1.601 0.718 10.577-5.287 22.818-18.322 27.234-25.05 8.242-12.552 18.354-53.17 18.364-53.224h0.002c1.298-4.911 1.994-10.066 2.002-15.382C160.908 37.28 146.595 16.324 125.898 6.622z" fill="#eed2cf" stroke-width="none" opacity="1"/>
              <path id="SvgjsPath3253" d="M158.918 76.762l-0.005 0c-0.012 0.053-9.983 40.707-18.186 53.285 -6.452 9.894-28.899 29.205-40.573 29.223 -11.671 0.02-34.17-19.225-40.652-29.1C51.261 117.618 41.15 77 41.138 76.946h-0.001c-1.298-4.911-1.994-10.066-2.002-15.382C39.082 28.09 66.289 0.919 99.907 0.867c33.621-0.052 60.913 27.033 60.963 60.507C160.879 66.69 160.201 71.846 158.918 76.762z" fill="none" stroke="#c8837c" stroke-width="1.5" opacity="1"/>
            </g>
          </g>
          <g id="svga-group-mouth-single-move" transform="matrix(1,0,0,1,0,0)">
            <g id="svga-group-mouth-single" transform="matrix(1,0,0,1,0,0)">
              <path id="SvgjsPath3341" d="M100.002 141.248c-4.158 0-5.133-3.404-5.133-3.404 5.5 2.12 10.267-0.146 10.267-0.146S103.659 141.248 100.002 141.248z" fill="url(#SvgjsLinearGradient3342)" opacity="1"/>
              <path id="SvgjsPath3345" d="M86.803 131.94c2.756-0.951 6.973-2.692 9.166-2.789 1.133-0.052 2.351 0.87 3.574 1.165 0.851 0.206 3.264-1.156 4.13-1.165 2.272-0.024 7.06 1.838 9.502 2.789 0.135 0.054 0 0 0 0s-5.789 6.953-13.185 6.953C91.618 138.894 86.803 131.94 86.803 131.94S86.666 131.989 86.803 131.94z" fill="#ab2563" stroke="#9c1252" stroke-width="0.75" opacity="1"/>
              <path id="SvgjsPath3346" d="M113.541 131.736c-0.048-0.164-0.482-0.367-0.653-0.359 -0.311 0.017-0.672 0.396-1.313 0.41 -0.742 0.018-4.679 0.61-5.736 0.54 -2.129-0.142-3.824 0.666-5.848 0.666 -2.025 0-3.868-0.882-5.996-0.739 -1.057 0.072-4.847-0.448-5.591-0.467 -0.643-0.015-0.892-0.411-1.166-0.464 -0.192-0.036-0.663 0.166-0.757 0.338 -0.083 0.149 0.092 0.67 0.209 0.794 0.285 0.297 1.136 0.242 1.698 0.256 0.777 0.017 4.577 0.538 5.65 0.466 2.081-0.141 3.936 0.822 5.952 0.822s3.725-0.889 5.806-0.748c1.071 0.071 5.015-0.524 5.793-0.54 0.563-0.014 1.366-0.061 1.654-0.292C113.379 132.311 113.59 131.904 113.541 131.736z" fill="#7d003a" stroke-width="none" opacity="1" stroke="none"/>
              <path id="SvgjsPath3347" d="M99.989 137.352c-3.37 0-6.645-1.153-9.241-3.305 1.307-0.072 2.652-0.277 3.961-0.22 1.613 0.07 3.144 0.707 4.756 0.813 1.742 0.116 3.358-0.487 5.064-0.694 1.422-0.17 3.664-0.674 5.091-0.622C107.068 135.28 103.244 137.352 99.989 137.352zM104.562 131.739c1.314-0.037 3.414-0.532 4.724-0.437 -1.405-0.759-3.657-0.941-5.243-1.247 -1.366-0.266-2.738 0.791-4.081 0.968 -1.514 0.199-2.65-1.239-4.119-1.288 -1.593 0.017-3.233 0.991-4.634 1.65 1.284-0.034 2.607-0.176 3.886-0.012 1.566 0.199 3.069 0.817 4.655 0.87C101.373 132.299 102.939 131.782 104.562 131.739z" fill="#ba3b76" stroke-width="none" opacity="1" stroke="none"/>
              <path id="SvgjsPath3348" d="M99.941 136.4c-2.029 0-4.007-0.702-5.707-2.002 0.38-0.038 0.764-0.067 1.133-0.067 0.117 0 0.234 0.004 0.351 0.011 0.609 0.032 1.209 0.207 1.846 0.393 0.618 0.178 1.256 0.363 1.923 0.42 0.132 0.01 0.264 0.015 0.395 0.015 0.819 0 1.596-0.204 2.348-0.4 0.477-0.125 0.928-0.243 1.392-0.313 0.253-0.04 0.527-0.059 0.837-0.059 0.268 0 0.544 0.015 0.818 0.036C103.862 135.485 102.03 136.4 99.941 136.4z" fill="#ca548a" stroke-width="none" opacity="1" stroke="none"/>
            </g>
          </g>
          <g id="svga-group-eyes-left-move" transform="matrix(1,0,0,1,0,0)">
            <g id="svga-group-eyes-left" transform="matrix(1,0,0,1,0,0)">
              <g id="svga-group-eyesback-left">
                <path id="SvgjsPath3073" d="M60.956 84.178c11.334-7.516 23.563-3.623 26.092 3.5 0.994 2.798 0.327 5.276-1.739 6.934C70.023 100.123 62.391 92.664 60.956 84.178z" fill="url(#SvgjsRadialGradient3074)" opacity="1"/>
              </g>
              <g id="svga-group-eyesiriswrapper-left" transform="matrix(1,0,0,1,-0.5,1.5)">
                <g id="svga-group-eyesiriscontrol-left" transform="matrix(1,0,0,1,0,0)">
                  <g id="svga-group-eyesiris-left" transform="matrix(1,0,0,1,0,0)">
                    <path id="SvgjsPath3203" d="M83.5 87.001c0 4.693-3.806 8.498-8.5 8.498s-8.5-3.805-8.5-8.498c0-4.697 3.806-8.502 8.5-8.502S83.5 82.304 83.5 87.001z" fill="#313b1d" stroke="#0a0d03" stroke-width="0.5" opacity="1"/>
                    <path id="SvgjsPath3204" d="M70.058 90.974c1.241-0.103 0.142-0.434 0.142-0.434 -0.613-0.331-1.768-0.839-1.768-1.306 0-1.461 2.002-1.839-0.048-2.416 -2.13-1.955 1.653-1.914 1.625-1.98 -1.381-3.366 0.423-1.518 1.183-2.512 2.816-3.682 0.785 0.378 2.314 0 0.554-0.136-1.105-2.169 0.048-1.884 0.763 0.187 0.937 0.821 0.937 0.821 0.557-0.109 1.428-0.966 1.428-0.966 1.061 0.32 1.806 1.827 1.478 1.545 0.522-0.063 1.252-0.313 1.822-0.483 0 0 0.1-0.338 0.196-0.047 1.3 3.77 4.652 3.5 0.792 4.589 0 0-0.249 0 0.542 0.627 3.839 3.066-2.978 2.117 0.638 3.527 0.147-0.146-2.167 1.368-2.167 1.787 0 0.71-1.477 2.576-2.757 1.841 -0.714-0.408-0.823 0.85-1.243 0.269 -0.823-1.138-2.467-0.049-1.859-1.095 0.898-0.737-0.926 0.289-1.28 0.289 -1.172 0 1.534-3.942 5.516-1.013 1.165 0.853-1.224-2.03 0.886-2.03 0.211 0.069 0.148-0.739 0.148-0.966 -1.098-0.215 1.969-0.005 1.969-1.788 0.193 0.039 0.721-0.495-2.316 0 0 0-0.097-1.063-0.048-1.256 0.156-0.62 1.72-0.422 1.28-1.063 -0.001-0.001-1.132-2.272-1.132-2.272 -3.645-0.586-1.562-0.952-3.841-0.483 -0.108 0.535-4.881 2.811-4.729 3.866 0.142 0.995 2.997 1.328 0.295 3.091C74.157 96.989 67.118 89.06 70.058 90.974z" fill="#404a2c" stroke-width="none" opacity="1" stroke="none"/>
                    <path id="SvgjsPath3205" d="M75,79.562l0.243,6.223l2.603-5.656l-2.158,5.84l4.572-4.229l-4.229,4.57l5.842-2.157l-5.655,2.604l6.222,0.242l-6.222,0.242l5.655,2.604l-5.842-2.157l4.229,4.57l-4.572-4.229l2.158,5.84l-2.603-5.656L75,94.437l-0.243-6.223l-2.604,5.656l2.156-5.84l-4.57,4.229l4.229-4.57l-5.842,2.157l5.655-2.604l-6.219-0.242l6.219-0.242l-5.655-2.604l5.842,2.157l-4.229-4.57l4.57,4.229l-2.156-5.84l2.604,5.656L75,79.562z" fill="#313b1d" stroke="#232c11" stroke-width="0.5" opacity="1"/>
                    <path id="SvgjsPath3206" d="M76.128,81.428l-0.764,4.697l2.808-3.841l-2.501,4.047l4.065-2.476l-3.859,2.783l4.702-0.73l-4.632,1.092l4.626,1.125l-4.699-0.762l3.842,2.808l-4.05-2.5l2.476,4.064l-2.783-3.86l0.73,4.702l-1.092-4.632l-1.126,4.625l0.764-4.697l-2.811,3.841l2.504-4.048l-4.064,2.476l3.86-2.783l-4.702,0.73l4.631-1.093l-4.625-1.125l4.697,0.761l-3.842-2.808l4.05,2.5l-2.475-4.064l2.782,3.86l-0.73-4.701l1.095,4.632L76.128,81.428z" fill="#313b1d" stroke="#161c08" stroke-width="0.5" opacity="1"/>
                    <path id="SvgjsPath3207" d="M78.188 87c0 1.761-1.428 3.187-3.188 3.187S71.813 88.76 71.813 87c0-1.76 1.428-3.188 3.188-3.188S78.188 85.239 78.188 87z" fill="#000000" stroke-width="none" opacity="0.9"/>
                    <path id="SvgjsPath3208" d="M71.653 93.108c-0.469 0.469-1.396 0.304-2.069-0.37 -0.674-0.673-0.84-1.6-0.37-2.069 0.469-0.469 1.396-0.304 2.069 0.37S72.123 92.638 71.653 93.108z" fill="#ffffff" stroke-width="none" opacity="0.7"/>
                    <path id="SvgjsPath3209" d="M81.809 85.326c-0.702 0.703-2.404 0.142-3.8-1.255 -1.396-1.396-1.958-3.097-1.255-3.8 0.703-0.703 2.404-0.142 3.8 1.255C81.95 82.922 82.511 84.624 81.809 85.326z" fill="#ffffff" stroke-width="none" opacity="0.9"/>
                  </g>
                </g>
              </g>
              <g id="svga-group-eyesfront-left">
                <path id="SvgjsPath3098" d="M56 88c0 13.808 8.06 24.999 18 24.999S92 101.808 92 88c0-13.809-8.06-25.001-18-25.001S56 74.191 56 88zM60.956 84.178c11.334-7.516 23.563-3.623 26.092 3.5 0.994 2.798 0.327 5.276-1.739 6.934C70.023 100.123 62.391 92.664 60.956 84.178z" fill="#f6e4e2" stroke-width="none" opacity="1"/>
                <path id="SvgjsPath3099" d="M58.286 88.081c0.025 8.284 8.099 14.961 18.043 14.918 9.939-0.047 17.979-6.796 17.957-15.08 -0.025-8.286-8.101-14.963-18.043-14.92C66.3 73.046 58.264 79.795 58.286 88.081zM60.956 84.178c11.334-7.516 23.563-3.623 26.092 3.5 0.994 2.798 0.327 5.276-1.739 6.934C70.023 100.123 62.391 92.664 60.956 84.178z" fill="url(#SvgjsRadialGradient3100)" opacity="1"/>
                <path id="SvgjsPath3104" d="M60.956 84.178c11.334-7.516 23.563-3.623 26.092 3.5 0.994 2.798 0.327 5.276-1.739 6.934C70.023 100.123 62.391 92.664 60.956 84.178z" fill="url(#SvgjsRadialGradient3105)" opacity="1"/>
                <path id="SvgjsPath3108" d="M67.99 77.86c6.02-0.57 13.485-1.112 20.077 3.386C79.514 77.213 75.347 77.714 67.99 77.86z" fill="#c8837c" stroke-width="none" opacity="1"/>
                <path id="SvgjsPath3109" d="M91.581 88.655c-1.807-2.671-3.564-4.351-6.535-6.319 1.776 0.43 3.052 0.963 5.007 1.944 -9.685-6.58-18.436-6.346-25.183-5.36l4.046 0.469 -2.973 0.675c-1.69 0.179-4.387-0.234-5.708-0.369l3.727 1.265c-1.922 0.919-4.02 0.629-6.643 0.475l2.031 1.622C57.485 83.25 55.904 82.72 54 82.067c2.144 3.765 4.103 5.901 7.695 7.897 1.612 2.208 2.915 3.317 5.439 4.805 -0.137 0.221-0.366 0.468-0.778 0.633 1.035-0.03 1.458-0.112 1.822 0 0.855 0.469 1.561 0.759 2.384 1.054 -0.377 0.269-0.646 0.381-1.173 0.474 1.02-0.094 1.959-0.311 2.554-0.158 2.582 0.303 4.583 0.346 7.408-0.211 1.183-0.263 2.188 0.03 3.111-0.053 -0.473-0.116-1.036-0.276-1.265-0.316l4.11-1.738C70.023 99.83 62.391 92.556 60.956 84.28c11.334-7.33 23.563-3.533 26.092 3.414 0.07-1.258-0.429-2.536-1.792-3.678C87.487 85.082 89.774 86.723 91.581 88.655z" fill="#000000" stroke-width="none" opacity="1"/>
              </g>
            </g>
          </g>
          <g id="svga-group-eyes-right-move" transform="matrix(1,0,0,1,0,0)">
            <g id="svga-group-eyes-right" transform="matrix(1,0,0,1,0,0)">
              <g id="svga-group-eyesback-right">
                <path id="SvgjsPath3081" d="M139.044 84.178c-11.334-7.516-23.563-3.623-26.092 3.5 -0.994 2.798-0.327 5.276 1.739 6.934C129.977 100.123 137.609 92.664 139.044 84.178z" fill="url(#SvgjsRadialGradient3082)" opacity="1"/>
              </g>
              <g id="svga-group-eyesiriswrapper-right" transform="matrix(1,0,0,1,0.5,1.5)">
                <g id="svga-group-eyesiriscontrol-right" transform="matrix(1,0,0,1,0,0)">
                  <g id="svga-group-eyesiris-right" transform="matrix(1,0,0,1,0,0)">
                    <path id="SvgjsPath3210" d="M133.5 87.001c0 4.692-3.806 8.498-8.5 8.498s-8.5-3.806-8.5-8.498c0-4.697 3.806-8.502 8.5-8.502S133.5 82.304 133.5 87.001z" fill="#313b1d" stroke="#0a0d03" stroke-width="0.5" opacity="1"/>
                    <path id="SvgjsPath3211" d="M120.059 90.974c1.24-0.103 0.142-0.434 0.142-0.434 -0.613-0.33-1.768-0.838-1.768-1.305 0-1.461 2.002-1.84-0.048-2.416 -2.131-1.956 1.652-1.915 1.625-1.981 -1.382-3.366 0.423-1.518 1.182-2.512 2.816-3.682 0.785 0.378 2.314 0 0.555-0.136-1.104-2.169 0.048-1.884 0.763 0.186 0.938 0.821 0.938 0.821 0.557-0.109 1.428-0.966 1.428-0.966 1.061 0.32 1.806 1.828 1.478 1.546 0.521-0.063 1.252-0.313 1.821-0.483 0 0 0.1-0.338 0.196-0.046 1.3 3.77 4.652 3.499 0.791 4.589 0 0-0.249 0 0.542 0.627 3.84 3.065-2.978 2.117 0.638 3.527 0.148-0.147-2.167 1.367-2.167 1.786 0 0.711-1.477 2.576-2.757 1.842 -0.714-0.409-0.822 0.85-1.243 0.269 -0.823-1.138-2.468-0.049-1.859-1.095 0.898-0.737-0.926 0.288-1.28 0.288 -1.172 0 1.534-3.942 5.516-1.013 1.165 0.854-1.225-2.029 0.886-2.029 0.212 0.069 0.148-0.739 0.148-0.967 -1.097-0.214 1.97-0.004 1.97-1.787 0.193 0.038 0.721-0.496-2.316 0 0 0-0.097-1.064-0.048-1.256 0.156-0.619 1.721-0.422 1.28-1.063 -0.001-0.001-1.133-2.271-1.133-2.271 -3.645-0.587-1.562-0.953-3.84-0.483 -0.108 0.535-4.881 2.811-4.729 3.866 0.142 0.994 2.996 1.328 0.295 3.092C124.157 96.989 117.118 89.06 120.059 90.974z" fill="#404a2c" stroke-width="none" opacity="1" stroke="none"/>
                    <path id="SvgjsPath3212" d="M125,79.562l0.242,6.222l2.604-5.656l-2.158,5.84l4.571-4.228l-4.229,4.57l5.842-2.157l-5.655,2.604l6.222,0.242l-6.222,0.242l5.655,2.604l-5.842-2.157l4.229,4.57l-4.571-4.228l2.158,5.84l-2.604-5.656L125,94.437l-0.242-6.222l-2.605,5.656l2.157-5.84l-4.57,4.228l4.229-4.57l-5.842,2.157l5.654-2.604l-6.219-0.242l6.219-0.242l-5.654-2.604l5.842,2.157l-4.229-4.57l4.57,4.228l-2.157-5.84l2.605,5.656L125,79.562z" fill="#313b1d" stroke="#232c11" stroke-width="0.5" opacity="1"/>
                    <path id="SvgjsPath3213" d="M126.128,81.428l-0.764,4.697l2.808-3.841l-2.501,4.047l4.064-2.475l-3.859,2.782l4.702-0.73l-4.632,1.093l4.626,1.125l-4.699-0.762l3.843,2.808l-4.05-2.5l2.476,4.063l-2.783-3.86l0.73,4.702l-1.092-4.632l-1.126,4.625l0.764-4.697l-2.812,3.841l2.505-4.047l-4.065,2.475l3.86-2.782l-4.702,0.73l4.631-1.094l-4.624-1.124l4.696,0.761l-3.842-2.808l4.05,2.501l-2.476-4.063l2.782,3.86l-0.73-4.702l1.095,4.632L126.128,81.428z" fill="#313b1d" stroke="#161c08" stroke-width="0.5" opacity="1"/>
                    <path id="SvgjsPath3214" d="M128.188 87c0 1.761-1.428 3.187-3.188 3.187s-3.188-1.426-3.188-3.187c0-1.76 1.428-3.188 3.188-3.188S128.188 85.239 128.188 87z" fill="#000000" stroke-width="none" opacity="0.9"/>
                    <path id="SvgjsPath3215" d="M121.653 93.108c-0.47 0.469-1.396 0.304-2.069-0.369 -0.674-0.673-0.84-1.601-0.369-2.07 0.469-0.47 1.395-0.304 2.068 0.369C121.956 91.712 122.122 92.639 121.653 93.108z" fill="#ffffff" stroke-width="none" opacity="0.7"/>
                    <path id="SvgjsPath3216" d="M131.809 85.326c-0.702 0.703-2.403 0.142-3.8-1.254 -1.396-1.396-1.957-3.098-1.256-3.8 0.703-0.703 2.405-0.142 3.8 1.254C131.949 82.922 132.512 84.624 131.809 85.326z" fill="#ffffff" stroke-width="none" opacity="0.9"/>
                  </g>
                </g>
              </g>
              <g id="svga-group-eyesfront-right">
                <path id="SvgjsPath3119" d="M126 62.999c-9.94 0-18 11.193-18 25.001 0 13.808 8.06 24.999 18 24.999S144 101.808 144 88C144 74.191 135.94 62.999 126 62.999zM114.691 94.612c-2.066-1.658-2.733-4.135-1.739-6.934 2.528-7.123 14.758-11.016 26.092-3.5C137.609 92.664 129.977 100.123 114.691 94.612z" fill="#f6e4e2" stroke-width="none" opacity="1"/>
                <path id="SvgjsPath3120" d="M123.757 72.999c-9.942-0.043-18.018 6.635-18.043 14.92 -0.022 8.284 8.018 15.032 17.957 15.08 9.944 0.043 18.018-6.635 18.043-14.918C141.736 79.795 133.7 73.046 123.757 72.999zM114.691 94.612c-2.066-1.658-2.733-4.135-1.739-6.934 2.528-7.123 14.758-11.016 26.092-3.5C137.609 92.664 129.977 100.123 114.691 94.612z" fill="url(#SvgjsRadialGradient3121)" opacity="1"/>
                <path id="SvgjsPath3125" d="M139.044 84.178c-11.334-7.516-23.563-3.623-26.092 3.5 -0.994 2.798-0.327 5.276 1.739 6.934C129.977 100.123 137.609 92.664 139.044 84.178z" fill="url(#SvgjsRadialGradient3126)" opacity="1"/>
                <path id="SvgjsPath3129" d="M111.933 81.247c6.592-4.498 14.058-3.956 20.077-3.386C124.653 77.714 120.486 77.213 111.933 81.247z" fill="#c8837c" stroke-width="none" opacity="1"/>
                <path id="SvgjsPath3130" d="M108.419 88.655c1.807-2.671 3.564-4.351 6.535-6.319 -1.776 0.43-3.052 0.963-5.007 1.944 9.685-6.58 18.436-6.346 25.183-5.36l-4.046 0.469 2.973 0.675c1.69 0.179 4.387-0.234 5.708-0.369l-3.727 1.265c1.922 0.919 4.02 0.629 6.643 0.475l-2.031 1.622c1.865 0.194 3.446-0.335 5.351-0.989 -2.144 3.765-4.103 5.901-7.695 7.897 -1.612 2.208-2.915 3.317-5.439 4.805 0.137 0.221 0.366 0.468 0.778 0.633 -1.035-0.03-1.458-0.112-1.822 0 -0.855 0.469-1.561 0.759-2.384 1.054 0.377 0.269 0.646 0.381 1.173 0.474 -1.02-0.094-1.959-0.311-2.554-0.158 -2.582 0.303-4.583 0.346-7.408-0.211 -1.183-0.263-2.188 0.03-3.111-0.053 0.473-0.116 1.036-0.276 1.265-0.316l-4.11-1.738c15.285 5.374 22.918-1.899 24.353-10.175 -11.334-7.33-23.563-3.533-26.092 3.414 -0.07-1.258 0.429-2.536 1.792-3.678C112.513 85.082 110.226 86.723 108.419 88.655z" fill="#000000" stroke-width="none" opacity="1"/>
              </g>
            </g>
          </g>
          <g id="svga-group-facehighlight-single">
            <path id="SvgjsPath2772" d="M140.204 113.007c0.035 22.275-17.995 40.365-40.273 40.396 -22.274 0.036-40.361-17.993-40.396-40.272C59.501 90.857 77.53 72.77 99.808 72.735 122.083 72.701 140.171 90.73 140.204 113.007z" fill="url(#SvgjsRadialGradient2773)" opacity="1"/>
            <path id="SvgjsPath2776" d="M135,55.999c0,19.329-15.671,35-35,35c-19.329,0-35-15.671-35-35s15.671-35,35-35C119.329,20.999,135,36.67,135,55.999z" fill="url(#SvgjsRadialGradient2777)" opacity="1"/>
          </g>
          <g id="svga-group-eyebrows-left-move" transform="matrix(1,0,0,1,0,0)">
            <g id="svga-group-eyebrows-left-rotate" transform="matrix(1,0,0,1,0,0)">
              <g id="svga-group-eyebrows-left" transform="matrix(1,0,0,1,0,0)">
                <path id="SvgjsPath3195" d="M52.488 73.87c7.475-9.383 20.338-7.822 30.878-6.314 2.681 0.384 5.441 0.672 8.07 1.336 1.884 0.475 3.365 2.622 1.851 4.356 -0.708 0.825-2.253 0.672-3.207 0.652C77.459 73.645 63.193 66.387 52.488 73.87z" fill="#2a232b" stroke-width="none" opacity="1"/>
              </g>
            </g>
          </g>
          <g id="svga-group-eyebrows-right-move" transform="matrix(1,0,0,1,0,0)">
            <g id="svga-group-eyebrows-right-rotate" transform="matrix(1,0,0,1,0,0)">
              <g id="svga-group-eyebrows-right" transform="matrix(1,0,0,1,0,0)">
                <path id="SvgjsPath3196" d="M147.577 73.49c-2.164-1.448-4.454-2.47-7.043-2.889 -9.497-1.54-27.586 4.79-32.341 3.45 -2.912-0.822-2.323-3.739-1.035-4.458 0.775-0.433 0.99-0.422 7.909-1.612C126.824 65.961 139.988 64.355 147.577 73.49z" fill="#2a232b" stroke-width="none" opacity="1"/>
              </g>
            </g>
          </g>
          <g id="svga-group-nose-single-move" transform="matrix(1,0,0,1,0,0)">
            <g id="svga-group-nose-single" transform="matrix(1,0,0,1,0,0)">
              <path id="SvgjsPath3295" d="M97.363 92.602c0 0 0.055 7.962-0.458 9.512 -1.129 3.405-6.123 11.297-5.49 13.486 0.985 3.403 5.817 3.652 8.259 3.771 2.338 0.115 7.091-0.055 7.857-2.267 0.312-0.9-0.361-3.197-0.361-3.197s-2.165 2.228-7.266 1.98c-1.456-0.07-3.824-1.5-3.851-3.517 -0.036-2.734 1.805-5.87 2.135-8.583C98.438 101.726 97.363 92.602 97.363 92.602z" fill="#e7c1bd" stroke-width="none" opacity="1"/>
              <path id="SvgjsPath3296" d="M104.209 117.032c0.881 0 1.119 0.234 1.119 0.522 0 0.29-0.274 0.735-1.119 0.522 -0.928-0.231-2.548-0.124-2.548-0.124S103.328 117.032 104.209 117.032zM95.8 117.032c-0.881 0.001-1.119 0.236-1.119 0.525 0 0.288 0.265 0.704 1.119 0.521 0.941-0.201 2.548-0.125 2.548-0.125S96.682 117.035 95.8 117.032zM107.169 113.906c0 0 1.22 1.384 0.966 2.847 -0.246 1.421-2.709 2.047-2.709 2.047s1.71-1.085 1.917-2.403C107.439 115.781 107.169 113.906 107.169 113.906zM92.12 112.482c0 0-0.89 1.938-0.632 3.117 0.467 2.13 3.032 2.982 3.032 2.982s-1.601-1.462-2.17-2.753C91.729 114.42 92.12 112.482 92.12 112.482z" fill="#c8837c" stroke-width="none" opacity="1"/>
              <path id="SvgjsPath3297" d="M104.166 114.937c0.854-0.637 0.939-1 0.763-1.237 -0.176-0.238-0.688-0.389-1.403 0.379 -0.788 0.846-2.502 1.47-2.502 1.47S103.312 115.574 104.166 114.937z" fill="#ffffff" stroke-width="none" opacity="1"/>
            </g>
          </g>
          <g id="svga-group-hair-front" transform="matrix(1,0,0,1,0,0)">
            <path id="SvgjsPath3317" d="M44.483 18.786v192.7h39.633c-0.985-7.894-2.345-15.114-3.827-18.896 -7.734-19.635-34.67-24.746-29.979-50.592l0.186-0.036c5.161 11.272 7.599 17.786 19.622 19.774 -16.696-13.644-13.473-26.335-11.147-42.457 1.357-9.407-1.612-16.768-3.584-24.324 2.337-6.986 3.574-13.578 4.833-21.104C71.469 6.622 121.799 9.658 136.22 52.964c9.121 27.391 1.487 36.087 12.741 53.306 0.534 12.012 3.037 24.947-11.378 41.925 -3.168 3.731-7.858 7.637-11.999 10.247 15.048-1.334 23.306-15.722 28.299-29.979l0.183 0.058c-6.601 55.459-31.788 30.36-34.347 82.965h41.151v-192.7H44.483z" fill="#3f173f" stroke-width="none" opacity="0.1" stroke="none"/>
            <path id="SvgjsPath3318" d="M84.239 24.512c0 0 13.507 2.744 15.441 8.394 -9.837-0.448-14.145-3.676-28.021 1.726C74.877 29.073 84.239 24.512 84.239 24.512zM116.354 23.835c0 0-14.886-0.596-16.673 9.07 9.837-0.448 15.855-4.834 29.83 1.466C127.59 28.832 116.354 23.835 116.354 23.835z" fill="#200520" stroke-width="none" opacity="1" stroke="none"/>
            <path id="SvgjsPath3319" d="M171.325 103.155c12.474-84.818-28.429-117.88-66.57-108.483C62.686-15.575 30.577 5.914 25.649 64.39c-0.889 20.541 1.352 36.037 1.709 39.729 -2.823 5.811-4.602 12.117-5.334 18.632 -2.28 1.989-4.366 3.558-6.692 5.203 1.216-0.168 3.034-0.383 6.451-1.384 -0.802 22.784 10.506 26.852 9.795 45.72 -0.663 12.739-0.707 13.817 1.769 22.173 6.55 22.107-3.539 20.229-0.849 47.579 31.104-1.338 46.501 4.047 119.532-0.472 1.616-0.101 12.444-0.799 16.533-0.559 -16.247-55.787 11.274-50.916 2.58-79.354C163.35 136.169 184.674 127.674 171.325 103.155zM120.349 232.486c0.313 3.851 0.855 8.563 1.039 9.658 -14.026 0.059-13.942-0.431-36.432-0.219 0.397-13.065 1.519-40.587-1.77-48.975 -8.064-20.475-33.709-27.085-35.086-49.86l0.195-0.036c5.38 11.757 9.681 16.499 22.217 18.573 -17.408-14.226-13.83-25.25-13.383-42.226 0.265-9.903-1.679-17.482-3.736-25.362 2.437-7.282 3.738-14.154 5.041-22.003 5.299-31.981 23.306-56.507 41.03-39.238 0.001-0.001 0.225-0.316 0.225-0.316 0.096 0.134 0.084 0.114 0.202 0.302 15.169-16.919 29.792-2.734 37.781 17.474 11.073 27.991 1.55 37.627 13.281 55.582 0.56 12.526 1.191 25.365-13.838 43.069 -3.304 3.889-7.355 7.003-11.67 9.727 15.688-1.395 25.436-14.789 30.639-29.654l0.191 0.059C141.093 186.96 112.813 144.06 120.349 232.486z" fill="#3f173f" stroke-width="none" opacity="1" stroke="none"/>
            <path id="SvgjsPath3320" d="M168.564 241.012c-4.089-0.24-14.917 0.458-16.533 0.559 -7.593 0.47-14.551 0.831-20.979 1.104 0.627-18.603-6.242-38.093 2.549-55.675 4.409-9.624 18.398-19 21.398-31 0.559-2.235 1.938-7.965 2.429-12.944 3.441 21.68-17.092 41.785-12.299 63.68 4.266-14.529 12.416-38.893 17.552-49.096 -0.563 16.096-1.812 20.566-1.289 30.668 4.13-9.095 7.526-16.68 5.584-38.498 0 0 2.598 6.715 4.168 11.848C179.839 190.096 152.317 185.225 168.564 241.012zM161.744 152.235c14.178-34.092-4.985-37.232-10.55-59.281C145.21 69.242 145.199 27.485 124 23c-10.773-2.279-19.332 1.04-24.926 9.434 0.13 0.122 0.26 0.239 0.39 0.366 0.001-0.001 0.225-0.316 0.225-0.316 0.096 0.134 0.084 0.114 0.202 0.302 15.169-16.919 29.792-2.734 37.781 17.474 11.073 27.991 1.55 37.627 13.281 55.582 2.666 23.645-7.074 41.159-25.508 52.796 15.263-7.068 28.199-18.51 30.174-46.749l0.398 0.199C161.471 119.218 164.952 140.731 161.744 152.235zM154.398 45c1.833 21.549 4.026 42.923 16.985 58.268 -0.021-0.038-0.038-0.074-0.059-0.112 0.178-1.207 0.604-4.451 0.76-5.638C166.309 90.678 160.708 78.757 159 66c-2.141-15.982 0.07-34.47-15.9-46C150.849 26.708 154.398 36 154.398 45zM69 18C44 33 50.146 61.473 44.146 84c-3.188 11.97-11.551 22.788-20.646 30.744 -0.609 2.384-1.069 4.813-1.377 7.277C60.299 97.473 45.24 48.478 61.199 30.666c11.568-12.911 25.383-17.769 38.489 1.817C96.415 16.706 79 13 69 18zM82.258 25.4c-7.133 1.456-14.761 9.231-18.923 16.342 -6.467 11.048-7.485 28.27-12.653 46.717 -4.4 15.707-13.998 30.571-33.68 39.249 26.759-5.687 35.423-30.752 36.391-33.667 2.437-7.282 3.738-14.154 5.041-22.003 5.26-31.746 23.042-56.139 40.64-39.604C93.415 26.512 90.127 23.793 82.258 25.4zM68.733 161.296c0.579 0.115 1.161 0.229 1.779 0.332 -17.408-14.226-14.13-25.25-13.683-42.226 0.255-9.563-1.65-17.359-3.626-24.951 -0.523 1.394-1.105 2.744-1.716 4.073C60.569 121.579 41.722 142.818 68.733 161.296zM146.702 161.628c9.171-9.346 13.167-29.969 11.369-43.484 -0.817 4.008-1.474 8.073-2.426 12.056 0.149-0.404 0.296-0.81 0.438-1.217l0.191 0.059c-15.183 57.919-43.463 15.019-35.927 103.445 0.313 3.851 0.855 8.563 1.039 9.658 -14.026 0.059-13.942-0.431-36.432-0.219 0.397-13.065 1.519-40.587-1.77-48.975 -7.75-19.678-44.052-31.323-33.378-62.632 -9.689 13.094-4.59 24.13 1.678 31.309 35.12 44.05 24.852 49.003 26.454 81.047 11.177 0.333 30.093 0.525 48.263-0.105C121.536 179.735 127.328 181.371 146.702 161.628zM39.184 142.011c-1.385-4.846 8.584-15.692 5.366-30.735C43.886 121.43 38.638 129.205 36 138c-3.999 33.884 27.286 39.376 14 74 0-13-2.667-19.437-7.667-31.437C42.333 196.563 49 207 41 223c0 0 2.761-11.765 0.26-17.418C32.879 180.272 39.439 170.276 33 154c-2.838-7.69-8.246-14.15-10.878-27.926 0.677 19.739 10.59 29.425 9.958 46.216 -0.663 12.739-1.207 13.817 1.268 22.173 6.55 22.107-3.539 20.229-0.849 47.579 12.221-0.525 22.025-0.014 33.847 0.527 2.261-24.406 5.03-40.444-7.662-60.172C51.814 171.72 37.453 160.703 39.184 142.011zM45 38c-4.149 20.744-5.556 42.857-18.478 58.357 0.366 3.807 0.713 6.488 0.837 7.762 -0.066 0.136-0.124 0.275-0.188 0.411C51.195 67.57 41.09 47.743 50 28c2-5 6.231-8.566 11-14C52.915 20.828 47 27 45 38zM166.623 102.836C155.162 84.076 155.692 61.634 148 38c-4.507-13.846-24.446-39.649-48.506-6.168 11.159-14.396 23.65-15.006 31.307-10.431 6.19 3.699 10.544 10.145 13.544 17.145 7.068 18.138 5.753 34.787 13.753 52.787 5 12 12.048 22.146 12.416 32.828 -0.332 4.575-3.198 15.689-4.698 19.253 0.479-1.376 6.27-12.165 6.27-18.4C172.085 118.144 170.466 109.127 166.623 102.836zM71.522 9.661c3.306-2.748 25.504-5.422 29.751 11.058C98.289 4.859 78.927 5.073 71.522 9.661zM135.429 8.581c3.49 2.642 2.081 1.447-0.513-0.514 -13.694-8.515-27.51-1.497-33.308 12.366C109.649 3.393 126.768 2.02 135.429 8.581zM147.768 15.763c-17.909-25.073-41.461-16.292-47.154-2.327C108.07-2.146 131.988-5.355 147.768 15.763zM47.118 21.915c-2.079 4.494 4.73-15.523 28.092-20.133 8.363-1.692 19.382-0.871 24.746 6.221C91.351-4.505 59.979-4.11 47.118 21.915zM134.716 12.859c1.24 0.864 2.13 1.626 2.078 1.583 -0.177-0.117-1.063-1.067-2.619-2.098 -11.543-7.674-29.75 1.124-33.899 15.082C105.102 13.747 123.645 5.512 134.716 12.859zM65.39 15.566c-3.443 2.883 4.383-2.277 6.732-2.839 8.25-2.126 24.014-0.522 28.82 11.981C96.429 10.93 77.129 7.13 65.39 15.566z" fill="#300d30" stroke-width="none" opacity="1" stroke="none"/>
            <path id="SvgjsPath3321" d="M54.287 8.395c-6.063 5.795-8.245 8.121-12.733 15.896C29.969 42.645 29.465 95.483 30.12 75.647 31.003 46.753 33.226 26.926 54.287 8.395zM40.166 46.282c-1.19 10.81 2.133-9.666 3.979-14.112C51.075 15.805 71.717-1.981 91.025 6.798c3.802 1.736 6.471 3.731 7.692 4.555C71.922-9.195 43.586 15.053 40.166 46.282zM140.025 11.352c4.61 4.55 8.293 8.722 8.248 8.671 -3.867-3.539-21.245-34.352-47.079-3.221C113.365 3.41 126.815-1.016 140.025 11.352zM91.268 18.114c5.95 4.151 11.459 11.672 10.709 10.672 -0.251-0.291-1.608-2.192-3.735-4.794C75.559-3.612 50 28.843 47.748 53.002 51.44 28.64 73.278 5.713 91.268 18.114zM148.446 35.102c0.914 2.425 1.39 3.932 1.306 3.63 -0.112-0.292-0.599-2.129-1.518-4.706 -7.781-22.254-29.125-27.144-48.288-4.222C119.501 8.442 139.361 12.269 148.446 35.102zM170.729 89.177c-0.008-0.391 0.217-2.754 0.27-6.182 0.46-22.099-4.53-58.257-22.219-71.904C171.765 31.294 170.628 90.434 170.729 89.177zM160.594 109.636c1.141 1.432 1.838 2.295 1.702 2.122 -6.983-11.994-4.544 1.486-14.992-43.759C151.208 88.03 150.813 97.418 160.594 109.636zM40.224 110.197c-3.71 3.778-2.039 2.239 0.691-0.536C55.243 92.089 52.19 85.149 56.037 63.719 52.939 77.874 52.532 97.469 40.224 110.197zM80.217 24.943c1.441-0.43 2.318-0.692 2.144-0.644 -4.026 1.411-20.332 4.076-24.18 27.199C61.569 36.735 70.158 28.113 80.217 24.943zM143.451 47.042c2.782 8.476-1.829-8.357-4.675-13.598 -5.338-10.289-12.488-12.038-23.153-11.645C133.024 21.025 137.857 30.72 143.451 47.042zM34.274 152.301c2.071 11.298 11.409 25.639 15.081 38.07 1.789 5.938 1.875 6.194-0.112-1.306 -11.232-35.413-21.715-39.51-10.232-69.374C39.011 119.691 30.189 136.554 34.274 152.301zM148.784 189.284c-0.385 2.617-0.607 4.203-0.555 3.89 9.005-39.146 13.987-26.598 11.758-65.936C160.009 171.216 154.996 151.983 148.784 189.284zM46.041 133.496c-8.804 20.717 5.362 28.95 22.507 53.013 3.892 6.425 2.585 4.246 1.648 2.489 -11.499-21.461-31.094-34.2-23.91-53.677 2.383-6.427 3.979-9.329 3.182-22.331C49.611 121.966 49.23 125.986 46.041 133.496zM52.428 119.592c-0.092 12.744-6.549 21.745 6.856 35.309 4.074 3.177-2.931-3.353-4.056-5.359 -2.187-3.878-3.819-8.571-3.37-13.059 0.683-13.909 1.296-1.389 0.912-29.999C52.413 116.792 52.728 110.031 52.428 119.592zM142.67 147.298c-1.671 2.148-4.705 4.313-5.604 6.149 -0.214 0.387 0.542-0.853 1.744-1.979 17.557-16.844 13.72-27.795 16.996-34.761C152.473 123.786 154.94 131.114 142.67 147.298zM126.529 187.542c-2.762 11.25-1.063 15.187-1.063 15.187 -0.185-1-0.322-1.582-0.322-3.37 2.057-31.334 25.247-25.986 31.597-60.146C151.157 167.077 131.887 167.036 126.529 187.542z" fill="#4e244e" stroke-width="none" opacity="1" stroke="none"/>
            <path id="SvgjsPath3322" d="M171.429 103.136c12.069-85.836-28.95-117.955-66.649-108.561 -63.629-15.205-85.202 40.694-77.51 109.5 -2.854 5.875-4.629 12.232-5.31 18.601 -2.671 2.329-6.03 4.794-7.03 5.43 2.281-0.256 4.492-0.737 6.75-1.4 -0.454 12.987 3.396 20.927 6.94 29.32 6.294 14.887 0.154 21.277 3.39 34.07 1.24 4.85 3.11 9.63 3.55 14.64 0.946 10.766-5.545 16.426-3.15 37.41 0.08 0 0.15-0.01 0.23-0.01 24.692-0.967 13.033-0.165 29.72 0.439 62.103 2.413 88.897-1.46 106.34-1.46 -12.259-39.767-0.309-49.433 3.61-63.05 3.343-11.656-3.539-17.892-3.11-27.43C170.279 131.121 182.242 124.247 171.429 103.136zM69.579 161.266c-11.588-2.079-16.382-8.37-21.42-19.061 -0.284-5.823 1.921-12.104 2.96-17.87 1.044-5.75 0.401-10.896-0.69-22.729 1.12-2.35 2.09-4.77 2.94-7.24 1.57 6.54 3.01 13.15 3.04 19.83C56.463 128.817 50.079 147.932 69.579 161.266zM21.699 126.226c-1.71 0.529-3.46 0.96-5.23 1.27 41.837-27.209 31.729-67.088 39.07-85.77 7.243-18.434 27.63-33.995 44.1-9.15 -0.06 0.08-0.109 0.15-0.16 0.23 -17.355-18.325-36.108 8.93-40.729 31.36 -4.49 21.877-6.914 51.458-35.12 61.41C23.629 125.575 21.699 126.205 21.699 126.226zM32.619 241.855c-0.543-9.458-0.846-11.33 0.73-18.64 1.28-5.961 3.59-12.12 3.23-18.271 -0.39-6.41-3.11-12.39-3.89-18.74 -0.75-6.14 0.5-12.31 0.53-18.46 0.082-12.213-10.172-20.935-9.61-41.63 8.104-2.688 15.358-7.616 20.94-14.84 0.917 21.249-5.573 19.928-6.48 31.84 -1.511 20.052 22.174 35.669 27.74 56.09 1.939 7.062 2.03 35.213 1.99 42.561C42.492 241.322 58.322 240.284 32.619 241.855zM67.999 241.766c1.762-47.609-0.21-49.127-16.54-70.601 -22.601-29.594-7.548-34.703-6.54-50.26 0.21-3.27 0-6.56-0.21-9.84 2.15-2.82 3.97-5.86 5.51-9.05 0.795 13.27 0.928 13.425 0.83 15.92 -0.627 17.156-14.775 28.272 12.29 53.859 21.941 20.76 20.976 18.661 21.51 70.03C79.229 241.865 73.609 241.865 67.999 241.766zM85.059 241.825c0.35-11.354 1.576-40.352-1.78-48.91 -8.071-20.492-33.704-27.098-35.08-49.83 0.323 1 3.402 7.811 6.93 11.45 4.472 4.623 9.446 6.313 15.75 7.25 -17.932-13.084-14.028-28.113-13.65-42.38 0.263-9.843-1.635-17.335-3.74-25.39 4.287-12.413 4.894-24.4 7.4-33.84 5.711-21.558 22.336-43.879 38.589-27.22 0.006-0.017 0.2-0.286 0.21-0.3 0.008 0.011 0.188 0.291 0.19 0.3 13.404-16.837 29.143-4.305 37.7 17.34 11.029 27.882 1.583 37.684 13.29 55.6 0.491 11.79 1.402 25.005-13.83 42.95 -3.366 3.96-8.398 7.835-12 9.92 15.66-0.846 25.939-14.893 31.14-29.75 -15.514 57.917-43.439 15.318-35.93 103.479 0.343 4.205 0.894 8.792 1.021 9.55C109.791 242.117 111.782 241.719 85.059 241.825zM163.389 147.476c7.729-35.545-14.471-31.226-17.31-59.59 -0.996-10.411-0.63-29.001-12.86-48.65 -8.754-14.108-21.634-20.468-33.27-6.5 -0.04-0.08-0.09-0.16-0.141-0.24 15.769-21.402 42.415-19.527 49.341 26.27 4.381 29.034 5.438 27.162 15.17 47.38C168.679 115.133 174.634 126.9 163.389 147.476zM151.329 106.596c2.058 3.087 4.326 5.995 6.521 9.05 0 16.35-13.219 39.914-30.75 42.47 2.52-1.54 4.96-3.229 7.09-5.25C150.003 137.833 152.699 124.613 151.329 106.596zM167.939 156.695c1.3 5.5 3.699 10.57 3.729 16.32 -1.432 16.422-17.601 23.629-3.31 67.67 -9.831-0.523-19.654 0.533-37.141 1.149 -0.459-25.169-2.177-31.864-0.949-42.59 2.851-25.063 24.016-23.109 27.159-56.189 -4.017 34.862-28.503 30.377-29.029 61.109 -0.033 2.001 2.4 37.353 2.43 37.681 -2.771 0.093-6.599 0.199-9.37 0.199 -7.985-81.762 13.702-65.904 27.891-91.109 4.94-8.745 8.701-22.552 8.76-34.92 8.21 11.655 7.685 17.531 4.77 32.819 5.384-8.491 9.791-22.53 6.51-32.88 -1.094-4.394-4.797-11.869-6.25-14.88 -10.84-22.439-8.965-23.64-13-45.33 -7.404-40.292-33.264-47.161-50.39-23.33 -17.552-27.954-45.346-8.197-49.08 25.4 -1.354 12.346-0.255 38.468-26.65 63.02 1.906-14.99 8.729-22.372 13.75-34.22 12.649-29.735 1.814-50.492 18.65-67.33C38.122 37.494 51 59.408 34.099 91.476c-1.94 3.67-4.1 7.24-6 10.939 -5.854-64.179 16.384-121.011 75.59-107.03 40.783-10.329 64.18 25.442 67.6 67.79 1.471 18.212-0.248 34.59-0.54 38.77 -2.87-4.89-6.31-9.47-8.34-14.81 -11.876-31.337-1.556-52.06-19.32-67.28 18.119 16.345 6.485 41.9 19.79 71.61 2.613 4.897 5.803 9.391 8.16 14.36C180.63 126.046 163.44 137.618 167.939 156.695z" fill="#110111" stroke-width="none" opacity="1" stroke="none"/>
          </g>
          <g id="svga-group-glasses-single-move" transform="matrix(1,0,0,1,0,0)">
            <g id="svga-group-glasses-single" transform="matrix(1,0,0,1,0,0)">
              <path id="SvgjsPath3199" d="M148.74 83.98c-0.07 5.17-2.36 10.62-5.3 14.98 -2.86 4.24-10.31 5.75-15.82 5.75 -4.5 0-8.51-0.92-11.02-2.53 -4.73-3.04-9.81-10.61-10.93-17.83C115.84 78.24 136.81 78.24 148.74 83.98zM51.26 83.28c-0.14 5.38 2.23 11.13 5.3 15.68 2.86 4.24 10.31 5.75 15.82 5.75 4.5 0 8.51-0.92 11.02-2.53 4.59-2.95 9.5-10.16 10.81-17.18C83.4 78.66 62.6 77.97 51.26 83.28z" fill="#ffffff" stroke-width="none" opacity="0.2"/>
              <path id="SvgjsPath3200" d="M148.74 83.98c-11.93-5.73-32.9-5.74-43.06 0.36 -0.17-1.1-0.25-2.19-0.23-3.26 0.22-8.25 12.02-11.18 22.06-11.18 7.08 0 15.44 1.47 18.14 4.74C147.91 77.39 148.79 80.62 148.74 83.98zM72.49 69.9c-7.08 0-15.44 1.47-18.14 4.74 -2.1 2.55-3.01 5.53-3.09 8.64 11.35-5.31 32.14-4.62 42.94 1.71 0.25-1.32 0.38-2.63 0.34-3.91C94.32 72.83 82.52 69.9 72.49 69.9z" fill="#ffffff" stroke-width="none" opacity="0.4"/>
              <path id="SvgjsPath3201" d="M154.48 72.86c-0.6-2.41-28.01-7.28-42.24-2.39 -3.44 1.18-5.82 2.23-7.24 3.72l0-0.02c-0.5 0.88-1.75 1.18-2.64 0.85 -1.6-0.61-3.22-0.58-4.72 0 -0.88 0.34-2.14 0.03-2.64-0.85l0 0.02c-1.42-1.49-3.79-2.53-7.24-3.72 -14.23-4.89-41.64-0.01-42.24 2.39 -0.23 0.95-0.54 6.06-0.52 7.89 0.02 1.83 1.16 1.69 2.87 2.49 0.66 0.31 2.04 2.67 2.17 3.64 0.63 4.54 2.44 8.75 5.26 12.93 4.82 7.14 21.71 8.27 28.91 3.64 4.98-3.2 10.14-10.73 11.51-18.22 0.27-1.49 0.52-2.65 0.71-3.65l0.01 0.05c0.36-1.23 1.97-1.83 3.57-1.86 1.6 0.03 3.21 0.63 3.57 1.86l0.01-0.05c0.18 1 0.44 2.16 0.71 3.65 1.37 7.49 6.53 15.02 11.51 18.22 7.2 4.63 24.09 3.5 28.91-3.64 2.82-4.18 4.63-8.39 5.26-12.93 0.13-0.98 1.51-3.34 2.17-3.64 1.71-0.8 2.86-0.65 2.87-2.49C155.02 78.92 154.71 73.8 154.48 72.86zM83.12 101.75c-6.38 4.1-22.02 3.04-26.15-3.07 -4.7-6.98-7.82-16.94-2.24-23.72 5.38-6.53 38.94-7.32 39.31 6.13C94.26 88.99 88.46 98.32 83.12 101.75zM143.03 98.68c-4.13 6.12-19.77 7.17-26.15 3.07 -5.34-3.43-11.14-12.76-10.92-20.66 0.37-13.45 33.93-12.66 39.31-6.13C150.85 81.73 147.73 91.7 143.03 98.68z" fill="#26120b" stroke-width="none" opacity="1"/>
              <path id="SvgjsPath3202" d="M45.37 73.94c0.05-0.5 0.1-0.89 0.15-1.09 0.6-2.41 28.01-7.28 42.24-2.39 3.44 1.18 5.82 2.23 7.24 3.72l0-0.02C95 74.15 73 62.54 45.37 73.94zM153.92 82.5c0.67-0.3 1.07-0.7 1.08-1.77 0.02-1.82-0.29-6.94-0.52-7.89 -0.6-2.41-28.01-7.28-42.24-2.39 -3.28 1.13-5.59 2.14-7.03 3.52 7.52-5.95 38.17-7.14 46.39 1.02C153.3 76.69 153.84 79.91 153.92 82.5z" fill="#351d15" stroke-width="none" opacity="1"/>
            </g>
          </g>
        </g>
      </g>
    </g>
    <rect id="SvgjsRect1052" width="200" height="15" x="0" y="185" fill="#ecf0f1" opacity="0.5" style="display: none;"/>
    <text id="SvgjsText1053" font-family="Roboto, Helvetica, Arial, sans-serif" font-size="10px" text-anchor="start" font-weight="400" anchor="start" fill="#333333" x="57.7355842590332" y="182.42826986312866" style="display: none;">
      <tspan id="SvgjsTspan1054" dy="13" x="57.7355842590332">Created on face.co</tspan>
    </text>
  </g>
</svg>
